<?xml version="1.0" standalone="no"?>
<!DOCTYPE svg PUBLIC "-//W3C//DTD SVG 20010904//EN"
 "http://www.w3.org/TR/2001/REC-SVG-20010904/DTD/svg10.dtd">
<svg version="1.0" xmlns="http://www.w3.org/2000/svg"
 width="1024.000000pt" height="1024.000000pt" viewBox="0 0 1024.000000 1024.000000"
 preserveAspectRatio="xMidYMid meet">
<metadata>
Created by potrace 1.11, written by Peter Selinger 2001-2013
</metadata>
<g transform="translate(0.000000,1024.000000) scale(0.100000,-0.100000)"
fill="#000000" stroke="none">
<path d="M2265 8649 c-193 -17 -375 -113 -508 -268 -58 -69 -129 -212 -153
-311 -17 -72 -18 -200 -18 -2950 0 -2741 1 -2878 18 -2947 28 -111 56 -174
120 -269 94 -139 269 -256 446 -300 72 -17 191 -18 2935 -18 1573 0 2878 3
2900 6 77 12 131 27 195 55 97 43 176 98 246 173 69 74 86 98 129 185 45 91
60 140 72 230 4 28 7 1337 7 2910 l0 2860 -23 85 c-21 75 -100 247 -121 260
-4 3 -24 25 -45 50 -88 106 -244 199 -395 236 -72 17 -193 18 -2905 19 -1557
0 -2861 -3 -2900 -6z m3325 -1522 c14 -4 43 -9 65 -12 98 -13 271 -70 388
-129 173 -88 273 -162 430 -321 55 -55 172 -206 206 -265 117 -202 179 -393
198 -615 37 -412 -52 -740 -289 -1070 -14 -19 -113 -130 -143 -160 -156 -155
-291 -245 -516 -345 -78 -34 -239 -73 -361 -86 -102 -11 -124 -12 -548 -13
l-405 -1 0 -408 -1 -408 -27 -56 c-30 -60 -68 -95 -133 -121 -62 -24 -609 -25
-680 -1 -69 23 -107 56 -140 121 l-29 58 1 1825 c0 1666 2 1828 17 1862 35 83
88 128 172 149 37 9 1760 5 1795 -4z"/>
<path d="M4615 5625 l0 -506 430 4 c327 3 441 7 475 18 25 7 47 16 50 19 3 3
23 14 45 25 53 27 164 139 198 199 58 104 76 244 47 365 -36 151 -180 304
-338 358 -40 14 -112 17 -477 20 l-430 4 0 -506z"/>
</g>
</svg>
